<?xml version="1.0" standalone="no"?>
<!DOCTYPE svg PUBLIC "-//W3C//DTD SVG 20010904//EN"
 "http://www.w3.org/TR/2001/REC-SVG-20010904/DTD/svg10.dtd">
<svg version="1.0" xmlns="http://www.w3.org/2000/svg"
 width="1176.000000pt" height="727.000000pt" viewBox="0 0 1176.000000 727.000000"
 preserveAspectRatio="xMidYMid meet">

<g transform="translate(0.000000,727.000000) scale(0.100000,-0.100000)"
fill="#000000" stroke="none">
<path d="M1500 7030 c0 -5 11 -10 25 -10 24 0 25 -2 25 -70 0 -40 4 -70 10
-70 6 0 10 30 10 70 0 63 2 70 20 70 11 0 20 5 20 10 0 6 -25 10 -55 10 -30 0
-55 -4 -55 -10z"/>
<path d="M1630 7030 c0 -5 4 -10 9 -10 6 0 13 5 16 10 3 6 -1 10 -9 10 -9 0
-16 -4 -16 -10z"/>
<path d="M2090 6960 c0 -47 4 -80 10 -80 6 0 10 16 10 35 0 35 0 35 45 35 45
0 45 0 45 -35 0 -19 5 -35 10 -35 6 0 10 33 10 80 0 47 -4 80 -10 80 -5 0 -10
-16 -10 -35 0 -35 0 -35 -45 -35 -45 0 -45 0 -45 35 0 19 -4 35 -10 35 -6 0
-10 -33 -10 -80z"/>
<path d="M2490 7030 c0 -5 5 -10 10 -10 6 0 10 5 10 10 0 6 -4 10 -10 10 -5 0
-10 -4 -10 -10z"/>
<path d="M1643 6940 c0 -36 2 -50 4 -32 2 17 2 47 0 65 -2 17 -4 3 -4 -33z"/>
<path d="M1702 6935 c1 -47 2 -51 5 -20 5 46 18 65 44 65 16 0 19 -8 19 -50 0
-64 18 -66 22 -2 3 43 5 47 31 50 26 3 27 2 27 -47 0 -29 5 -51 11 -51 6 0 9
20 7 51 -3 60 -24 82 -58 62 -12 -8 -21 -9 -25 -3 -4 6 -24 9 -46 8 l-39 -3 2
-60z"/>
<path d="M1917 6982 c-22 -24 -21 -65 1 -85 28 -26 82 -19 82 9 0 12 -4 12
-24 -1 -22 -14 -25 -14 -40 0 -25 26 -19 35 24 35 32 0 40 4 40 18 0 41 -54
57 -83 24z m63 -18 c0 -16 -45 -20 -55 -5 -7 12 25 30 42 24 7 -3 13 -11 13
-19z"/>
<path d="M2277 6982 c-22 -24 -21 -65 1 -85 39 -35 92 -10 92 43 0 54 -59 80
-93 42z m68 -42 c0 -30 -3 -35 -27 -38 -30 -4 -44 23 -33 59 5 15 14 19 33 17
24 -3 27 -8 27 -38z"/>
<path d="M2412 6935 c1 -50 2 -53 5 -17 3 28 11 47 24 55 26 16 24 25 -6 23
-24 -1 -25 -4 -23 -61z"/>
<path d="M2490 6940 c0 -33 4 -60 10 -60 6 0 10 27 10 60 0 33 -4 60 -10 60
-6 0 -10 -27 -10 -60z"/>
<path d="M2540 6990 c0 -5 11 -10 25 -10 14 0 25 -3 25 -7 0 -3 -11 -21 -25
-39 -35 -46 -32 -54 20 -54 25 0 45 5 45 10 0 6 -13 10 -30 10 -36 0 -37 3 -5
44 35 46 32 56 -15 56 -22 0 -40 -4 -40 -10z"/>
<path d="M2668 6989 c-27 -15 -25 -85 3 -99 31 -17 62 -8 79 23 13 24 13 30 0
55 -17 29 -53 39 -82 21z m67 -29 c11 -36 -4 -62 -33 -58 -28 3 -40 32 -28 64
8 22 54 18 61 -6z"/>
<path d="M2790 6938 c0 -70 18 -78 22 -10 3 43 5 47 28 47 23 0 25 -4 28 -47
4 -63 22 -62 22 1 0 57 -12 70 -62 68 l-38 -1 0 -58z"/>
<path d="M6866 6369 c-57 -45 -19 -139 55 -139 34 0 69 31 69 60 0 16 -7 20
-35 20 -19 0 -35 -4 -35 -10 0 -5 11 -10 25 -10 23 0 24 -2 15 -20 -13 -24
-62 -27 -84 -4 -9 8 -16 28 -16 44 0 16 7 36 16 44 20 20 73 21 80 1 8 -19 24
-19 24 0 0 36 -73 46 -114 14z"/>
<path d="M7920 6366 c0 -19 -4 -22 -25 -18 -35 6 -55 -14 -55 -58 0 -46 14
-59 63 -57 l37 1 0 78 c0 45 -4 78 -10 78 -5 0 -10 -11 -10 -24z m-5 -76 c0
-31 -3 -35 -25 -35 -19 0 -26 6 -28 23 -5 36 5 54 30 50 19 -2 23 -9 23 -38z"/>
<path d="M8020 6380 c0 -5 11 -10 25 -10 23 0 24 -3 28 -72 l3 -73 2 73 c2 70
3 72 27 72 14 0 25 5 25 10 0 6 -25 10 -55 10 -30 0 -55 -4 -55 -10z"/>
<path d="M8150 6380 c0 -5 4 -10 9 -10 6 0 13 5 16 10 3 6 -1 10 -9 10 -9 0
-16 -4 -16 -10z"/>
<path d="M8623 6383 c-7 -2 -13 -17 -13 -33 0 -24 6 -30 43 -42 30 -11 42 -20
42 -34 0 -26 -54 -33 -72 -8 -15 21 -26 14 -17 -10 8 -21 50 -31 83 -20 20 7
26 16 26 39 0 26 -5 32 -42 45 -53 18 -61 50 -13 50 17 0 30 -4 30 -10 0 -5 7
-10 17 -10 14 0 14 2 -2 20 -17 19 -54 25 -82 13z"/>
<path d="M8960 6380 c0 -5 4 -10 9 -10 6 0 13 5 16 10 3 6 -1 10 -9 10 -9 0
-16 -4 -16 -10z"/>
<path d="M9330 6310 c0 -47 4 -80 10 -80 6 0 10 16 10 35 0 33 2 35 35 35 19
0 35 5 35 10 0 6 -16 10 -35 10 -31 0 -35 3 -35 25 0 23 4 25 40 25 22 0 40 5
40 10 0 6 -22 10 -50 10 l-50 0 0 -80z"/>
<path d="M7640 6366 c0 -8 -6 -17 -12 -20 -10 -5 -10 -7 0 -12 7 -3 12 -24 12
-50 0 -31 5 -46 15 -51 9 -3 19 -2 23 2 4 4 1 10 -5 12 -8 3 -13 21 -13 43 0
21 6 41 13 44 10 5 10 7 0 12 -7 3 -13 12 -13 20 0 8 -4 14 -10 14 -5 0 -10
-6 -10 -14z"/>
<path d="M9719 6363 c-6 -66 12 -133 36 -133 19 0 20 16 0 24 -9 3 -15 19 -15
41 0 24 4 35 15 35 8 0 15 5 15 10 0 6 -7 10 -15 10 -8 0 -15 7 -15 15 0 21
-20 19 -21 -2z"/>
<path d="M7032 6338 c-7 -7 -12 -29 -12 -50 0 -39 19 -58 58 -58 22 0 49 27
38 37 -4 4 -11 2 -15 -6 -11 -18 -55 -10 -59 12 -3 14 4 17 37 17 29 0 41 4
41 14 0 37 -61 61 -88 34z m68 -28 c0 -6 -13 -10 -30 -10 -30 0 -43 24 -17 33
15 5 47 -10 47 -23z"/>
<path d="M7162 6285 c1 -46 2 -51 5 -20 5 46 18 65 44 65 13 0 20 -10 24 -37
11 -68 13 -69 12 -8 l-2 60 -42 0 -43 1 2 -61z"/>
<path d="M7302 6338 c-7 -7 -12 -29 -12 -50 0 -39 19 -58 58 -58 22 0 49 27
38 37 -4 4 -11 2 -15 -6 -11 -18 -55 -10 -59 12 -3 14 4 17 37 17 29 0 41 4
41 14 0 37 -61 61 -88 34z m68 -28 c0 -6 -13 -10 -30 -10 -30 0 -43 24 -17 33
15 5 47 -10 47 -23z"/>
<path d="M7432 6285 c1 -50 2 -53 5 -17 3 28 11 47 24 55 26 16 24 25 -6 23
-24 -1 -25 -4 -23 -61z"/>
<path d="M7510 6335 c-18 -21 -5 -31 15 -12 17 18 45 12 45 -9 0 -8 -10 -14
-23 -14 -13 0 -32 -6 -43 -14 -31 -24 -7 -51 45 -51 l41 0 0 51 c0 38 -4 53
-16 58 -27 10 -51 7 -64 -9z m65 -54 c9 -16 -37 -42 -52 -29 -10 8 -10 14 -2
24 13 16 45 19 54 5z"/>
<path d="M7722 6338 c-7 -7 -12 -29 -12 -50 0 -39 19 -58 58 -58 22 0 49 27
38 37 -4 4 -11 2 -15 -6 -11 -18 -55 -10 -59 12 -3 14 4 17 37 17 29 0 41 4
41 14 0 37 -61 61 -88 34z m68 -28 c0 -6 -13 -10 -30 -10 -30 0 -43 24 -17 33
15 5 47 -10 47 -23z"/>
<path d="M8163 6290 c0 -36 2 -50 4 -32 2 17 2 47 0 65 -2 17 -4 3 -4 -33z"/>
<path d="M8210 6288 c0 -70 18 -78 22 -10 3 43 5 47 31 50 26 3 27 2 27 -47 0
-64 18 -67 22 -3 3 43 5 47 28 47 23 0 25 -4 28 -47 2 -27 7 -48 13 -48 14 0
11 84 -5 106 -13 17 -18 18 -45 7 -17 -6 -33 -7 -36 -3 -3 5 -23 8 -45 7 l-40
-1 0 -58z"/>
<path d="M8437 6332 c-22 -24 -21 -65 1 -85 28 -26 82 -19 82 9 0 12 -4 12
-24 -1 -22 -14 -25 -14 -40 0 -25 26 -19 35 24 35 32 0 40 4 40 18 0 41 -54
57 -83 24z m63 -18 c0 -16 -45 -20 -55 -5 -7 12 25 30 42 24 7 -3 13 -11 13
-19z"/>
<path d="M8756 6328 c-9 -12 -16 -29 -16 -38 0 -49 61 -77 95 -44 21 21 13 29
-14 12 -15 -9 -26 -10 -38 -2 -34 21 -26 34 21 34 50 0 60 15 30 44 -22 23
-60 20 -78 -6z m69 -19 c-10 -15 -55 -11 -55 5 0 8 6 16 13 19 17 6 49 -12 42
-24z"/>
<path d="M8880 6288 c0 -32 4 -58 10 -58 6 0 10 21 10 46 0 37 4 47 20 51 30
8 24 20 -10 20 -30 0 -30 -1 -30 -59z"/>
<path d="M8973 6290 c0 -36 2 -50 4 -32 2 17 2 47 0 65 -2 17 -4 3 -4 -33z"/>
<path d="M9036 6334 c-36 -35 -10 -104 38 -104 13 0 29 7 36 15 18 22 5 31
-15 11 -12 -12 -21 -13 -36 -6 -34 19 -23 40 21 40 32 0 40 4 40 18 0 40 -54
57 -84 26z m64 -20 c0 -9 -11 -14 -30 -14 -33 0 -39 14 -13 28 21 12 43 5 43
-14z"/>
<path d="M9160 6335 c-18 -22 -6 -42 29 -50 17 -4 31 -13 31 -20 0 -20 -28
-26 -45 -8 -20 19 -33 9 -15 -12 24 -29 80 -15 80 20 0 18 -8 26 -35 35 -19 6
-35 15 -35 20 0 16 30 19 45 3 20 -19 33 -9 15 12 -16 19 -54 19 -70 0z"/>
<path d="M9467 6332 c-22 -24 -21 -65 1 -85 28 -26 82 -19 82 9 0 12 -4 12
-24 -1 -22 -14 -25 -14 -40 0 -25 26 -19 35 24 35 32 0 40 4 40 18 0 41 -54
57 -83 24z m63 -18 c0 -16 -45 -20 -55 -5 -7 12 25 30 42 24 7 -3 13 -11 13
-19z"/>
<path d="M9600 6335 c-18 -21 -5 -31 15 -12 17 18 45 12 45 -9 0 -8 -10 -14
-23 -14 -13 0 -32 -6 -43 -14 -31 -24 -7 -51 45 -51 l41 0 0 51 c0 38 -4 53
-16 58 -27 10 -51 7 -64 -9z m65 -54 c9 -16 -37 -42 -52 -29 -10 8 -10 14 -2
24 13 16 45 19 54 5z"/>
<path d="M9800 6301 c0 -57 12 -70 63 -68 l37 1 0 58 c0 70 -18 78 -22 11 -3
-44 -5 -48 -28 -48 -23 0 -25 4 -28 48 -4 62 -22 61 -22 -2z"/>
<path d="M9940 6288 c0 -32 4 -58 10 -58 6 0 10 21 10 46 0 37 4 47 20 51 30
8 24 20 -10 20 -30 0 -30 -1 -30 -59z"/>
<path d="M10026 6328 c-9 -12 -16 -29 -16 -38 0 -49 61 -77 95 -44 21 21 13
29 -14 12 -15 -9 -26 -10 -38 -2 -34 21 -26 34 21 34 50 0 60 15 30 44 -22 23
-60 20 -78 -6z m69 -19 c-10 -15 -55 -11 -55 5 0 8 6 16 13 19 17 6 49 -12 42
-24z"/>
<path d="M10162 6341 c-23 -14 -9 -45 26 -55 33 -9 43 -30 18 -39 -7 -3 -23 1
-35 9 -18 13 -21 13 -21 1 0 -29 60 -37 81 -11 16 20 1 46 -31 54 -13 3 -25
10 -27 17 -6 18 25 23 42 6 20 -19 33 -9 15 12 -14 16 -47 20 -68 6z"/>
<path d="M1140 6110 l0 -210 1060 0 1060 0 0 210 0 210 -1060 0 -1060 0 0
-210z m2100 0 l0 -190 -1040 0 -1040 0 0 190 0 190 1040 0 1040 0 0 -190z"/>
<path d="M1790 6110 c0 -47 4 -80 10 -80 6 0 10 28 10 63 l0 62 22 -37 c12
-21 26 -38 30 -38 5 0 19 17 31 38 l22 37 3 -62 c4 -91 22 -77 22 17 0 63 -3
80 -14 80 -8 0 -17 -8 -20 -17 -4 -10 -14 -28 -24 -41 l-18 -24 -27 41 c-15
23 -32 41 -37 41 -6 0 -10 -34 -10 -80z"/>
<path d="M2340 6110 c0 -86 17 -111 22 -33 2 37 7 49 22 51 24 5 36 -14 36
-60 0 -21 5 -38 10 -38 15 0 12 83 -3 105 -10 12 -22 16 -40 13 -23 -4 -27 -2
-27 18 0 13 -4 24 -10 24 -6 0 -10 -33 -10 -80z"/>
<path d="M2553 6173 c-28 -19 -30 -38 -3 -23 19 10 20 8 20 -55 0 -37 4 -65
10 -65 6 0 10 33 10 80 0 44 -3 80 -7 79 -5 0 -18 -7 -30 -16z"/>
<path d="M2260 6166 c0 -8 -6 -17 -12 -20 -10 -5 -10 -7 0 -12 6 -3 12 -21 12
-39 0 -18 3 -40 6 -49 7 -17 44 -22 44 -6 0 6 -7 10 -15 10 -11 0 -15 11 -15
40 0 29 4 40 15 40 8 0 15 5 15 10 0 6 -7 10 -15 10 -8 0 -15 7 -15 15 0 8 -4
15 -10 15 -5 0 -10 -6 -10 -14z"/>
<path d="M1990 6135 c-7 -9 -13 -29 -13 -45 0 -41 20 -62 57 -58 21 2 35 11
46 31 13 24 13 30 0 55 -19 32 -69 42 -90 17z m69 -23 c6 -10 7 -29 4 -41 -4
-17 -12 -21 -32 -19 -27 3 -39 32 -27 64 8 20 43 17 55 -4z"/>
<path d="M2120 6088 c0 -70 18 -78 22 -10 3 43 5 47 28 47 23 0 25 -4 28 -47
4 -63 22 -62 22 1 0 57 -12 70 -62 68 l-38 -1 0 -58z"/>
<path d="M1140 5585 l0 -215 1060 0 1060 0 0 215 0 215 -1060 0 -1060 0 0
-215z m2100 0 l0 -195 -1040 0 -1040 0 0 195 0 195 1040 0 1040 0 0 -195z"/>
<path d="M1790 5580 c0 -47 4 -80 10 -80 6 0 10 28 10 63 l0 62 22 -37 c12
-21 26 -38 30 -38 5 0 19 17 31 38 l22 37 3 -62 c4 -91 22 -77 22 17 0 63 -3
80 -14 80 -8 0 -17 -8 -20 -17 -4 -10 -14 -28 -24 -41 l-18 -24 -27 41 c-15
23 -32 41 -37 41 -6 0 -10 -34 -10 -80z"/>
<path d="M2340 5580 c0 -86 17 -111 22 -33 2 37 7 49 22 51 24 5 36 -14 36
-60 0 -21 5 -38 10 -38 15 0 12 83 -3 105 -10 12 -22 16 -40 13 -23 -4 -27 -2
-27 18 0 13 -4 24 -10 24 -6 0 -10 -33 -10 -80z"/>
<path d="M2532 5648 c-14 -14 -16 -38 -3 -38 5 0 12 7 15 16 9 22 50 14 54
-11 2 -13 -12 -35 -38 -60 -22 -21 -40 -43 -40 -47 0 -4 25 -8 55 -8 30 0 55
5 55 10 0 6 -19 10 -42 10 l-42 0 37 34 c55 50 48 106 -13 106 -14 0 -31 -5
-38 -12z"/>
<path d="M2260 5636 c0 -8 -6 -17 -12 -20 -10 -5 -10 -7 0 -12 6 -3 12 -21 12
-39 0 -18 3 -40 6 -49 7 -17 44 -22 44 -6 0 6 -7 10 -15 10 -11 0 -15 11 -15
40 0 29 4 40 15 40 8 0 15 5 15 10 0 6 -7 10 -15 10 -8 0 -15 7 -15 15 0 8 -4
15 -10 15 -5 0 -10 -6 -10 -14z"/>
<path d="M1990 5605 c-7 -9 -13 -29 -13 -45 0 -41 20 -62 57 -58 21 2 35 11
46 31 13 24 13 30 0 55 -19 32 -69 42 -90 17z m69 -23 c6 -10 7 -29 4 -41 -4
-17 -12 -21 -32 -19 -27 3 -39 32 -27 64 8 20 43 17 55 -4z"/>
<path d="M2120 5558 c0 -70 18 -78 22 -10 3 43 5 47 28 47 23 0 25 -4 28 -47
4 -63 22 -62 22 1 0 57 -12 70 -62 68 l-38 -1 0 -58z"/>
<path d="M7440 5460 l0 -210 1060 0 1060 0 0 210 0 210 -1060 0 -1060 0 0
-210z m2100 0 l0 -190 -1040 0 -1040 0 0 190 0 190 1040 0 1040 0 0 -190z"/>
<path d="M8320 5460 c0 -63 3 -80 15 -80 10 0 15 15 17 58 l3 57 18 -32 c10
-18 22 -33 26 -33 5 0 20 17 33 38 l23 37 3 -62 c4 -91 22 -77 22 17 0 93 -13
104 -49 40 -12 -22 -25 -40 -29 -40 -4 0 -17 18 -30 40 -37 65 -52 54 -52 -40z"/>
<path d="M8520 5530 c0 -5 5 -10 10 -10 6 0 10 5 10 10 0 6 -4 10 -10 10 -5 0
-10 -4 -10 -10z"/>
<path d="M8520 5440 c0 -33 4 -60 10 -60 6 0 10 27 10 60 0 33 -4 60 -10 60
-6 0 -10 -27 -10 -60z"/>
<path d="M8580 5438 c0 -70 18 -78 22 -10 3 43 5 47 28 47 23 0 25 -4 28 -47
4 -63 22 -62 22 1 0 57 -12 70 -62 68 l-38 -1 0 -58z"/>
<path d="M1140 5060 l0 -210 1060 0 1060 0 0 210 0 210 -1060 0 -1060 0 0
-210z m2100 0 l0 -190 -1040 0 -1040 0 0 190 0 190 1040 0 1040 0 0 -190z"/>
<path d="M1790 5060 c0 -47 4 -80 10 -80 6 0 10 28 10 63 l0 62 22 -37 c12
-21 26 -38 30 -38 5 0 19 17 31 38 l22 37 3 -62 c4 -91 22 -77 22 17 0 63 -3
80 -14 80 -8 0 -17 -8 -20 -17 -4 -10 -14 -28 -24 -41 l-18 -24 -27 41 c-15
23 -32 41 -37 41 -6 0 -10 -34 -10 -80z"/>
<path d="M2340 5060 c0 -86 17 -111 22 -33 2 37 7 49 22 51 24 5 36 -14 36
-60 0 -21 5 -38 10 -38 15 0 12 83 -3 105 -10 12 -22 16 -40 13 -23 -4 -27 -2
-27 18 0 13 -4 24 -10 24 -6 0 -10 -33 -10 -80z"/>
<path d="M2530 5125 c-17 -21 -7 -29 18 -14 21 13 52 6 52 -12 0 -6 -9 -13
-20 -16 -11 -3 -20 -9 -20 -13 0 -4 9 -10 20 -13 14 -3 20 -14 20 -31 0 -21
-5 -26 -25 -26 -13 0 -28 8 -34 17 -5 10 -13 14 -17 10 -14 -14 12 -42 43 -45
41 -4 70 29 55 62 -6 13 -8 33 -5 45 3 12 0 28 -7 36 -16 19 -64 19 -80 0z"/>
<path d="M2260 5116 c0 -8 -6 -17 -12 -20 -10 -5 -10 -7 0 -12 6 -3 12 -21 12
-39 0 -18 3 -40 6 -49 7 -17 44 -22 44 -6 0 6 -7 10 -15 10 -11 0 -15 11 -15
40 0 29 4 40 15 40 8 0 15 5 15 10 0 6 -7 10 -15 10 -8 0 -15 7 -15 15 0 8 -4
15 -10 15 -5 0 -10 -6 -10 -14z"/>
<path d="M1990 5085 c-7 -9 -13 -29 -13 -45 0 -41 20 -62 57 -58 21 2 35 11
46 31 13 24 13 30 0 55 -19 32 -69 42 -90 17z m69 -23 c6 -10 7 -29 4 -41 -4
-17 -12 -21 -32 -19 -27 3 -39 32 -27 64 8 20 43 17 55 -4z"/>
<path d="M2120 5038 c0 -70 18 -78 22 -10 3 43 5 47 28 47 23 0 25 -4 28 -47
4 -63 22 -62 22 1 0 57 -12 70 -62 68 l-38 -1 0 -58z"/>
<path d="M7440 4640 l0 -210 1060 0 1060 0 0 210 0 210 -1060 0 -1060 0 0
-210z m2100 0 l0 -190 -1040 0 -1040 0 0 190 0 190 1040 0 1040 0 0 -190z"/>
<path d="M8300 4640 c0 -94 18 -108 22 -17 l3 62 23 -37 c13 -21 28 -38 33
-38 4 0 16 15 26 33 l18 32 3 -57 c2 -43 7 -58 17 -58 12 0 15 17 15 80 0 94
-15 105 -52 40 -13 -22 -26 -40 -29 -40 -3 0 -15 18 -28 40 -36 65 -51 53 -51
-40z"/>
<path d="M8513 4673 c-15 -6 -17 -33 -3 -33 6 0 10 5 10 10 0 6 11 10 25 10
16 0 25 -6 25 -15 0 -9 -9 -15 -23 -15 -13 0 -32 -6 -43 -14 -31 -23 -7 -51
45 -52 l41 -1 0 53 c0 38 -4 53 -16 58 -18 7 -43 7 -61 -1z m55 -70 c-4 -23
-58 -31 -58 -9 0 13 16 22 48 25 8 0 12 -7 10 -16z"/>
<path d="M8620 4675 c0 -3 7 -17 16 -30 15 -23 14 -26 -6 -55 -15 -21 -17 -30
-8 -30 7 0 20 11 29 25 l15 26 14 -26 c7 -14 20 -25 27 -25 11 0 9 8 -7 30
-21 29 -21 32 -5 56 22 33 9 46 -14 15 l-19 -24 -11 21 c-10 20 -31 31 -31 17z"/>
<path d="M1140 4530 l0 -210 1060 0 1060 0 0 210 0 210 -1060 0 -1060 0 0
-210z m2100 0 l0 -190 -1040 0 -1040 0 0 190 0 190 1040 0 1040 0 0 -190z"/>
<path d="M1790 4530 c0 -47 4 -80 10 -80 6 0 10 28 10 63 l0 62 22 -37 c12
-21 26 -38 30 -38 5 0 19 17 31 38 l22 37 3 -62 c4 -91 22 -77 22 17 0 63 -3
80 -14 80 -8 0 -17 -8 -20 -17 -4 -10 -14 -28 -24 -41 l-18 -24 -27 41 c-15
23 -32 41 -37 41 -6 0 -10 -34 -10 -80z"/>
<path d="M2340 4530 c0 -86 17 -111 22 -33 2 37 7 49 22 51 24 5 36 -14 36
-60 0 -21 5 -38 10 -38 15 0 12 83 -3 105 -10 12 -22 16 -40 13 -23 -4 -27 -2
-27 18 0 13 -4 24 -10 24 -6 0 -10 -33 -10 -80z"/>
<path d="M2548 4552 c-21 -32 -38 -62 -38 -65 0 -4 18 -7 40 -7 29 0 40 -4 40
-15 0 -8 5 -15 10 -15 6 0 10 6 10 14 0 8 6 17 13 20 10 5 10 7 0 12 -8 3 -13
26 -13 60 0 71 -15 70 -62 -4z m42 -12 c0 -36 -2 -40 -25 -40 -14 0 -25 2 -25
5 0 6 44 75 48 75 1 0 2 -18 2 -40z"/>
<path d="M2260 4586 c0 -8 -6 -17 -12 -20 -10 -5 -10 -7 0 -12 6 -3 12 -21 12
-39 0 -18 3 -40 6 -49 7 -17 44 -22 44 -6 0 6 -7 10 -15 10 -11 0 -15 11 -15
40 0 29 4 40 15 40 8 0 15 5 15 10 0 6 -7 10 -15 10 -8 0 -15 7 -15 15 0 8 -4
15 -10 15 -5 0 -10 -6 -10 -14z"/>
<path d="M1990 4555 c-7 -9 -13 -29 -13 -45 0 -41 20 -62 57 -58 21 2 35 11
46 31 13 24 13 30 0 55 -19 32 -69 42 -90 17z m69 -23 c6 -10 7 -29 4 -41 -4
-17 -12 -21 -32 -19 -27 3 -39 32 -27 64 8 20 43 17 55 -4z"/>
<path d="M2120 4508 c0 -70 18 -78 22 -10 3 43 5 47 28 47 23 0 25 -4 28 -47
4 -63 22 -62 22 1 0 57 -12 70 -62 68 l-38 -1 0 -58z"/>
<path d="M1140 4010 l0 -210 1060 0 1060 0 0 210 0 210 -1060 0 -1060 0 0
-210z m2100 0 l0 -190 -1040 0 -1040 0 0 190 0 190 1040 0 1040 0 0 -190z"/>
<path d="M1790 4010 c0 -47 4 -80 10 -80 6 0 10 28 10 63 l0 62 22 -37 c12
-21 26 -38 30 -38 5 0 19 17 31 38 l22 37 3 -62 c4 -91 22 -77 22 17 0 63 -3
80 -14 80 -8 0 -17 -8 -20 -17 -4 -10 -14 -28 -24 -41 l-18 -24 -27 41 c-15
23 -32 41 -37 41 -6 0 -10 -34 -10 -80z"/>
<path d="M2340 4010 c0 -86 17 -111 22 -33 2 37 7 49 22 51 24 5 36 -14 36
-60 0 -21 5 -38 10 -38 15 0 12 83 -3 105 -10 12 -22 16 -40 13 -23 -4 -27 -2
-27 18 0 13 -4 24 -10 24 -6 0 -10 -33 -10 -80z"/>
<path d="M2528 4065 c-4 -62 -5 -60 35 -57 35 3 37 2 37 -27 0 -26 -4 -31 -25
-31 -13 0 -28 8 -34 17 -11 21 -26 11 -18 -11 7 -18 50 -31 72 -22 8 3 20 17
27 31 16 34 -14 68 -55 62 -21 -3 -27 0 -22 10 3 8 5 19 5 24 0 5 13 9 29 9
17 0 33 5 36 10 4 6 -12 10 -39 10 -42 0 -46 -2 -48 -25z"/>
<path d="M2260 4066 c0 -8 -6 -17 -12 -20 -10 -5 -10 -7 0 -12 6 -3 12 -21 12
-39 0 -18 3 -40 6 -49 7 -17 44 -22 44 -6 0 6 -7 10 -15 10 -11 0 -15 11 -15
40 0 29 4 40 15 40 8 0 15 5 15 10 0 6 -7 10 -15 10 -8 0 -15 7 -15 15 0 8 -4
15 -10 15 -5 0 -10 -6 -10 -14z"/>
<path d="M1990 4035 c-7 -9 -13 -29 -13 -45 0 -41 20 -62 57 -58 21 2 35 11
46 31 13 24 13 30 0 55 -19 32 -69 42 -90 17z m69 -23 c6 -10 7 -29 4 -41 -4
-17 -12 -21 -32 -19 -27 3 -39 32 -27 64 8 20 43 17 55 -4z"/>
<path d="M2120 3988 c0 -70 18 -78 22 -10 3 43 5 47 28 47 23 0 25 -4 28 -47
4 -63 22 -62 22 1 0 57 -12 70 -62 68 l-38 -1 0 -58z"/>
<path d="M4360 4080 c0 -47 4 -80 10 -80 6 0 10 16 10 35 0 33 2 35 35 35 19
0 35 5 35 10 0 6 -16 10 -35 10 -31 0 -35 3 -35 25 0 23 4 25 40 25 22 0 40 5
40 10 0 6 -22 10 -50 10 l-50 0 0 -80z"/>
<path d="M5230 4080 l0 -80 55 0 c30 0 55 5 55 10 0 6 -20 10 -45 10 -41 0
-45 2 -45 25 0 23 4 25 40 25 22 0 40 5 40 10 0 6 -18 10 -40 10 -36 0 -40 3
-40 25 0 23 4 25 45 25 25 0 45 5 45 10 0 6 -25 10 -55 10 l-55 0 0 -80z"/>
<path d="M5630 4150 c0 -5 5 -10 10 -10 6 0 10 5 10 10 0 6 -4 10 -10 10 -5 0
-10 -4 -10 -10z"/>
<path d="M6170 4150 c0 -5 5 -10 10 -10 6 0 10 5 10 10 0 6 -4 10 -10 10 -5 0
-10 -4 -10 -10z"/>
<path d="M4750 4136 c0 -8 -6 -17 -12 -20 -10 -5 -10 -7 0 -12 6 -3 12 -22 12
-43 0 -20 5 -42 12 -49 15 -15 38 -16 38 -2 0 6 -7 10 -15 10 -11 0 -15 11
-15 40 0 29 4 40 15 40 8 0 15 5 15 10 0 6 -7 10 -15 10 -8 0 -15 7 -15 15 0
8 -4 15 -10 15 -5 0 -10 -6 -10 -14z"/>
<path d="M5555 4123 c-44 -7 -50 -17 -51 -89 -1 -60 1 -65 23 -70 40 -10 75 4
71 29 -2 18 -11 23 -40 25 -41 3 -53 22 -14 22 28 0 49 22 44 47 -1 10 1 24 5
31 5 6 5 11 0 11 -4 -1 -21 -4 -38 -6z m13 -37 c5 -24 -10 -38 -31 -30 -20 7
-23 40 -4 47 19 8 32 2 35 -17z m12 -95 c0 -12 -37 -24 -50 -16 -20 12 -10 25
20 25 17 0 30 -4 30 -9z"/>
<path d="M6415 4123 c-44 -7 -50 -17 -51 -89 -1 -60 1 -65 23 -70 40 -10 75 4
71 29 -2 18 -11 23 -40 25 -41 3 -53 22 -14 22 28 0 49 22 44 47 -1 10 1 24 5
31 5 6 5 11 0 11 -4 -1 -21 -4 -38 -6z m13 -37 c5 -24 -10 -38 -31 -30 -20 7
-23 40 -4 47 19 8 32 2 35 -17z m12 -95 c0 -12 -37 -24 -50 -16 -20 12 -10 25
20 25 17 0 30 -4 30 -9z"/>
<path d="M4496 4104 c-36 -35 -10 -104 38 -104 13 0 29 7 36 15 18 22 5 31
-15 11 -12 -12 -21 -13 -36 -6 -34 19 -23 40 21 40 32 0 40 4 40 18 0 40 -54
57 -84 26z m64 -20 c0 -9 -11 -14 -30 -14 -33 0 -39 14 -13 28 21 12 43 5 43
-14z"/>
<path d="M4633 4113 c-13 -5 -19 -33 -7 -33 3 0 12 7 20 15 17 16 44 10 44
-11 0 -8 -10 -14 -23 -14 -13 0 -32 -6 -43 -14 -31 -23 -7 -51 45 -52 l41 -1
0 47 c0 25 -5 51 -12 58 -12 12 -43 15 -65 5z m57 -68 c0 -17 -29 -34 -47 -28
-31 11 -10 40 30 42 9 1 17 -6 17 -14z"/>
<path d="M4832 4069 c3 -60 24 -82 58 -61 12 7 20 8 20 2 0 -5 5 -10 10 -10 6
0 10 27 10 60 0 71 -18 81 -22 13 -3 -44 -5 -48 -30 -51 -27 -3 -28 -2 -28 47
0 29 -5 51 -11 51 -6 0 -9 -20 -7 -51z"/>
<path d="M4970 4058 c0 -32 4 -58 10 -58 6 0 10 21 10 46 0 37 4 47 20 51 30
8 24 20 -10 20 -30 0 -30 -1 -30 -59z"/>
<path d="M5057 4102 c-22 -24 -21 -65 1 -85 28 -26 82 -19 82 9 0 12 -4 12
-24 -1 -22 -14 -25 -14 -40 0 -25 26 -19 35 24 35 32 0 40 4 40 18 0 41 -54
57 -83 24z m63 -18 c0 -16 -45 -20 -55 -5 -7 12 25 30 42 24 7 -3 13 -11 13
-19z"/>
<path d="M5370 4058 c0 -70 18 -78 22 -10 3 43 5 47 28 47 23 0 25 -4 28 -47
4 -63 22 -62 22 1 0 57 -12 70 -62 68 l-38 -1 0 -58z"/>
<path d="M5630 4060 c0 -33 4 -60 10 -60 6 0 10 27 10 60 0 33 -4 60 -10 60
-6 0 -10 -27 -10 -60z"/>
<path d="M5690 4058 c0 -70 18 -78 22 -10 3 43 5 47 28 47 23 0 25 -4 28 -47
4 -58 22 -64 22 -7 0 62 -13 78 -60 76 l-40 -1 0 -58z"/>
<path d="M5836 4104 c-36 -35 -10 -104 38 -104 13 0 29 7 36 15 18 22 5 31
-15 11 -12 -12 -21 -13 -36 -6 -34 19 -23 40 21 40 32 0 40 4 40 18 0 40 -54
57 -84 26z m64 -20 c0 -9 -11 -14 -30 -14 -33 0 -39 14 -13 28 21 12 43 5 43
-14z"/>
<path d="M5967 4102 c-22 -24 -21 -65 1 -85 28 -26 82 -19 82 9 0 12 -4 12
-24 -1 -22 -14 -25 -14 -40 0 -25 26 -19 35 24 35 32 0 40 4 40 18 0 41 -54
57 -83 24z m63 -18 c0 -16 -45 -20 -55 -5 -7 12 25 30 42 24 7 -3 13 -11 13
-19z"/>
<path d="M6090 4058 c0 -32 4 -58 10 -58 6 0 10 21 10 46 0 37 4 47 20 51 30
8 24 22 -10 21 -30 -1 -30 -1 -30 -60z"/>
<path d="M6170 4060 c0 -33 4 -60 10 -60 6 0 10 27 10 60 0 33 -4 60 -10 60
-6 0 -10 -27 -10 -60z"/>
<path d="M6230 4058 c0 -70 18 -78 22 -10 3 43 5 47 28 47 23 0 25 -4 28 -47
4 -63 22 -62 22 1 0 57 -12 70 -62 68 l-38 -1 0 -58z"/>
<path d="M7440 3830 l0 -210 1060 0 1060 0 0 210 0 210 -1060 0 -1060 0 0
-210z m2100 0 l0 -190 -1040 0 -1040 0 0 190 0 190 1040 0 1040 0 0 -190z"/>
<path d="M8346 3894 c-28 -27 -15 -50 40 -69 26 -9 39 -19 39 -32 0 -25 -54
-31 -72 -7 -15 20 -28 13 -20 -10 8 -21 54 -31 86 -20 20 7 26 16 26 39 0 26
-5 32 -42 45 -29 10 -43 20 -43 32 0 20 44 26 55 8 3 -5 13 -10 22 -10 14 0
14 3 -2 20 -22 24 -67 26 -89 4z"/>
<path d="M8640 3886 c0 -21 -4 -24 -32 -22 -25 1 -35 -5 -47 -26 -14 -25 -14
-31 -1 -55 13 -23 23 -28 58 -29 l42 -1 0 79 c0 45 -4 78 -10 78 -5 0 -10 -11
-10 -24z m-5 -76 c0 -31 -3 -35 -27 -38 -26 -3 -28 -1 -28 31 0 40 7 49 35 45
16 -2 20 -10 20 -38z"/>
<path d="M8480 3885 c0 -8 -5 -15 -11 -15 -8 0 -8 -4 -1 -13 6 -7 12 -30 14
-51 3 -39 29 -69 45 -52 4 5 2 11 -4 13 -16 6 -17 80 -1 85 7 3 5 12 -8 26
-22 26 -34 28 -34 7z"/>
<path d="M6290 3812 l0 -92 -1030 0 -1030 0 0 -195 0 -195 1030 0 1029 0 3
-90 3 -90 188 187 187 188 -190 190 -190 190 0 -93z m188 -450 l-163 -162 -3
75 -3 75 -1029 0 -1030 0 0 175 0 175 1030 0 1030 0 0 77 0 78 165 -165 165
-165 -162 -163z"/>
<path d="M1140 3480 l0 -210 1060 0 1060 0 0 210 0 210 -1060 0 -1060 0 0
-210z m2100 0 l0 -190 -1040 0 -1040 0 0 190 0 190 1040 0 1040 0 0 -190z"/>
<path d="M1790 3480 c0 -47 4 -80 10 -80 6 0 10 28 10 63 l0 62 22 -37 c12
-21 26 -38 30 -38 5 0 19 17 31 38 l22 37 3 -62 c4 -91 22 -77 22 17 0 63 -3
80 -14 80 -8 0 -17 -8 -20 -17 -4 -10 -14 -28 -24 -41 l-18 -24 -27 41 c-15
23 -32 41 -37 41 -6 0 -10 -34 -10 -80z"/>
<path d="M2340 3480 c0 -86 17 -111 22 -33 2 37 7 49 22 51 24 5 36 -14 36
-60 0 -21 5 -38 10 -38 15 0 12 83 -3 105 -10 12 -22 16 -40 13 -23 -4 -27 -2
-27 18 0 13 -4 24 -10 24 -6 0 -10 -33 -10 -80z"/>
<path d="M2537 3542 c-24 -26 -23 -104 1 -125 25 -23 55 -21 77 3 15 16 17 26
9 48 -9 23 -15 27 -47 26 -38 -1 -47 12 -25 34 16 16 45 15 51 0 2 -7 8 -10
12 -6 12 12 -15 38 -40 38 -12 0 -29 -8 -38 -18z m67 -77 c9 -24 -4 -45 -29
-45 -24 0 -42 30 -30 50 10 15 52 12 59 -5z"/>
<path d="M2260 3536 c0 -8 -6 -17 -12 -20 -10 -5 -10 -7 0 -12 6 -3 12 -21 12
-39 0 -18 3 -40 6 -49 7 -17 44 -22 44 -6 0 6 -7 10 -15 10 -11 0 -15 11 -15
40 0 29 4 40 15 40 8 0 15 5 15 10 0 6 -7 10 -15 10 -8 0 -15 7 -15 15 0 8 -4
15 -10 15 -5 0 -10 -6 -10 -14z"/>
<path d="M1990 3505 c-7 -9 -13 -29 -13 -45 0 -41 20 -62 57 -58 21 2 35 11
46 31 13 24 13 30 0 55 -19 32 -69 42 -90 17z m69 -23 c6 -10 7 -29 4 -41 -4
-17 -12 -21 -32 -19 -27 3 -39 32 -27 64 8 20 43 17 55 -4z"/>
<path d="M2120 3458 c0 -70 18 -78 22 -10 3 43 5 47 28 47 23 0 25 -4 28 -47
4 -63 22 -62 22 1 0 57 -12 70 -62 68 l-38 -1 0 -58z"/>
<path d="M7440 3010 l0 -210 1060 0 1060 0 0 210 0 210 -1060 0 -1060 0 0
-210z m2100 0 l0 -190 -1040 0 -1040 0 0 190 0 190 1040 0 1040 0 0 -190z"/>
<path d="M8034 3073 c23 -71 54 -138 67 -141 9 -1 23 22 41 75 26 72 29 99 9
77 -5 -5 -16 -33 -26 -61 -9 -29 -20 -53 -24 -53 -4 0 -16 26 -27 57 -12 31
-26 59 -33 61 -9 3 -11 -2 -7 -15z"/>
<path d="M8400 3080 c0 -5 5 -10 10 -10 6 0 10 5 10 10 0 6 -4 10 -10 10 -5 0
-10 -4 -10 -10z"/>
<path d="M8190 3035 c-17 -21 -7 -29 18 -14 21 13 52 7 52 -11 0 -5 -13 -10
-29 -10 -40 0 -64 -25 -51 -51 12 -21 50 -25 68 -7 9 9 12 9 12 0 0 -7 5 -12
10 -12 13 0 13 76 0 101 -13 23 -62 26 -80 4z m68 -62 c-4 -23 -58 -31 -58 -9
0 15 14 24 43 25 12 1 17 -5 15 -16z"/>
<path d="M8310 2989 c0 -46 3 -59 15 -59 11 0 15 12 15 44 0 34 5 47 23 59 22
14 21 15 -15 15 l-38 0 0 -59z"/>
<path d="M8400 2990 c0 -33 4 -60 10 -60 6 0 10 27 10 60 0 33 -4 60 -10 60
-6 0 -10 -27 -10 -60z"/>
<path d="M8473 3043 c-15 -6 -17 -33 -3 -33 6 0 10 5 10 10 0 6 11 10 25 10
16 0 25 -6 25 -15 0 -9 -9 -15 -23 -15 -13 0 -32 -6 -43 -14 -31 -23 -7 -51
45 -52 l41 -1 0 53 c0 38 -4 53 -16 58 -18 7 -43 7 -61 -1z m55 -70 c-4 -23
-58 -31 -58 -9 0 13 16 22 48 25 8 0 12 -7 10 -16z"/>
<path d="M8590 2988 c0 -70 18 -78 22 -10 3 43 5 47 28 47 23 0 25 -4 28 -47
4 -63 22 -62 22 1 0 57 -12 70 -62 68 l-38 -1 0 -58z"/>
<path d="M8737 3032 c-51 -56 26 -138 79 -85 13 13 14 18 3 22 -7 2 -15 -1
-17 -7 -6 -20 -50 -14 -57 8 -10 32 4 60 30 60 13 0 25 -5 27 -11 2 -7 10 -10
17 -8 11 4 10 9 -3 22 -23 22 -59 22 -79 -1z"/>
<path d="M8866 3028 c-9 -12 -16 -29 -16 -38 0 -9 7 -26 16 -38 18 -26 65 -30
84 -7 16 19 5 34 -12 17 -18 -18 -46 -14 -58 8 -10 19 -8 20 35 20 49 0 59 15
29 44 -22 23 -60 20 -78 -6z m69 -8 c4 -6 -7 -10 -24 -10 -17 0 -31 5 -31 10
0 6 11 10 24 10 14 0 28 -4 31 -10z"/>
<path d="M1140 2955 l0 -215 1060 0 1060 0 0 215 0 215 -1060 0 -1060 0 0
-215z m2100 0 l0 -195 -1040 0 -1040 0 0 195 0 195 1040 0 1040 0 0 -195z"/>
<path d="M1790 2960 c0 -47 4 -80 10 -80 6 0 10 28 10 63 l0 62 22 -37 c12
-21 26 -38 30 -38 5 0 19 17 31 38 l22 37 3 -62 c4 -91 22 -77 22 17 0 63 -3
80 -14 80 -8 0 -17 -8 -20 -17 -4 -10 -14 -28 -24 -41 l-18 -24 -27 41 c-15
23 -32 41 -37 41 -6 0 -10 -34 -10 -80z"/>
<path d="M2340 2960 c0 -86 17 -111 22 -33 2 37 7 49 22 51 24 5 36 -14 36
-60 0 -21 5 -38 10 -38 15 0 12 83 -3 105 -10 12 -22 16 -40 13 -23 -4 -27 -2
-27 18 0 13 -4 24 -10 24 -6 0 -10 -33 -10 -80z"/>
<path d="M2520 3030 c0 -5 18 -10 40 -10 22 0 40 -2 40 -5 0 -3 -13 -32 -30
-65 -33 -66 -34 -70 -19 -70 8 0 79 139 79 156 0 2 -25 4 -55 4 -30 0 -55 -4
-55 -10z"/>
<path d="M2260 3016 c0 -8 -6 -17 -12 -20 -10 -5 -10 -7 0 -12 6 -3 12 -21 12
-39 0 -18 3 -40 6 -49 7 -17 44 -22 44 -6 0 6 -7 10 -15 10 -11 0 -15 11 -15
40 0 29 4 40 15 40 8 0 15 5 15 10 0 6 -7 10 -15 10 -8 0 -15 7 -15 15 0 8 -4
15 -10 15 -5 0 -10 -6 -10 -14z"/>
<path d="M1990 2985 c-7 -9 -13 -29 -13 -45 0 -41 20 -62 57 -58 21 2 35 11
46 31 13 24 13 30 0 55 -19 32 -69 42 -90 17z m69 -23 c6 -10 7 -29 4 -41 -4
-17 -12 -21 -32 -19 -27 3 -39 32 -27 64 8 20 43 17 55 -4z"/>
<path d="M2120 2938 c0 -70 18 -78 22 -10 3 43 5 47 28 47 23 0 25 -4 28 -47
4 -63 22 -62 22 1 0 57 -12 70 -62 68 l-38 -1 0 -58z"/>
<path d="M1140 2430 l0 -210 1060 0 1060 0 0 210 0 210 -1060 0 -1060 0 0
-210z m2100 0 l0 -190 -1040 0 -1040 0 0 190 0 190 1040 0 1040 0 0 -190z"/>
<path d="M1790 2430 c0 -47 4 -80 10 -80 6 0 10 28 10 63 l0 62 22 -37 c12
-21 26 -38 30 -38 5 0 19 17 31 38 l22 37 3 -62 c4 -91 22 -77 22 17 0 63 -3
80 -14 80 -8 0 -17 -8 -20 -17 -4 -10 -14 -28 -24 -41 l-18 -24 -27 41 c-15
23 -32 41 -37 41 -6 0 -10 -34 -10 -80z"/>
<path d="M2340 2430 c0 -86 17 -111 22 -33 2 37 7 49 22 51 24 5 36 -14 36
-60 0 -21 5 -38 10 -38 15 0 12 83 -3 105 -10 12 -22 16 -40 13 -23 -4 -27 -2
-27 18 0 13 -4 24 -10 24 -6 0 -10 -33 -10 -80z"/>
<path d="M2536 2495 c-19 -20 -20 -27 -4 -43 9 -9 9 -15 0 -24 -7 -7 -12 -21
-12 -33 0 -45 61 -62 94 -26 18 20 14 61 -5 61 -5 0 -4 9 3 20 27 42 -40 81
-76 45z m59 -25 c0 -8 -10 -16 -22 -18 -18 -3 -23 2 -23 18 0 16 5 21 23 18
12 -2 22 -10 22 -18z m3 -72 c3 -24 0 -28 -23 -28 -27 0 -41 20 -31 46 10 27
51 13 54 -18z"/>
<path d="M2260 2486 c0 -8 -6 -17 -12 -20 -10 -5 -10 -7 0 -12 6 -3 12 -21 12
-39 0 -18 3 -40 6 -49 7 -17 44 -22 44 -6 0 6 -7 10 -15 10 -11 0 -15 11 -15
40 0 29 4 40 15 40 8 0 15 5 15 10 0 6 -7 10 -15 10 -8 0 -15 7 -15 15 0 8 -4
15 -10 15 -5 0 -10 -6 -10 -14z"/>
<path d="M1990 2455 c-7 -9 -13 -29 -13 -45 0 -41 20 -62 57 -58 21 2 35 11
46 31 13 24 13 30 0 55 -19 32 -69 42 -90 17z m69 -23 c6 -10 7 -29 4 -41 -4
-17 -12 -21 -32 -19 -27 3 -39 32 -27 64 8 20 43 17 55 -4z"/>
<path d="M2120 2408 c0 -70 18 -78 22 -10 3 43 5 47 28 47 23 0 25 -4 28 -47
4 -63 22 -62 22 1 0 57 -12 70 -62 68 l-38 -1 0 -58z"/>
<path d="M7440 2195 l0 -215 1060 0 1060 0 0 215 0 215 -1060 0 -1060 0 0
-215z m2100 0 l0 -195 -1040 0 -1040 0 0 195 0 195 1040 0 1040 0 0 -195z"/>
<path d="M8080 2190 c0 -64 3 -80 15 -80 11 0 15 11 15 38 l1 37 33 -37 c46
-53 66 -48 23 5 l-36 44 32 31 c17 17 27 35 23 39 -4 4 -23 -9 -42 -29 l-34
-38 0 35 c0 24 -5 35 -15 35 -12 0 -15 -16 -15 -80z"/>
<path d="M8780 2260 c0 -5 5 -10 10 -10 6 0 10 5 10 10 0 6 -4 10 -10 10 -5 0
-10 -4 -10 -10z"/>
<path d="M8440 2245 c0 -14 -27 -20 -72 -16 -15 2 -18 -7 -18 -58 0 -48 3 -61
15 -61 11 0 15 12 15 45 0 35 4 47 21 56 27 14 37 3 41 -45 3 -39 29 -69 45
-52 4 5 2 11 -4 13 -16 6 -17 80 -1 85 7 3 5 12 -8 26 -22 26 -34 28 -34 7z"/>
<path d="M8210 2196 c0 -54 16 -86 43 -86 13 0 28 5 35 12 9 9 12 9 12 0 0 -7
5 -12 10 -12 6 0 10 27 10 60 0 33 -4 60 -10 60 -5 0 -10 -20 -10 -44 0 -31
-5 -46 -16 -50 -37 -14 -44 -7 -44 44 0 38 -4 50 -15 50 -10 0 -15 -10 -15
-34z"/>
<path d="M8526 2208 c-9 -12 -16 -29 -16 -38 0 -33 31 -61 63 -58 43 4 64 45
45 86 -18 37 -69 43 -92 10z m69 -38 c0 -31 -3 -35 -27 -38 -26 -3 -28 -1 -28
31 0 40 7 49 35 45 16 -2 20 -10 20 -38z"/>
<path d="M8660 2215 c-16 -19 -5 -34 37 -51 18 -8 31 -19 28 -24 -9 -14 -53
-12 -58 3 -2 6 -8 9 -12 5 -14 -13 16 -38 45 -38 31 0 55 23 47 44 -3 8 -22
19 -41 26 -20 6 -34 16 -31 21 8 12 45 12 45 -1 0 -5 5 -10 10 -10 16 0 11 27
-6 34 -26 10 -51 7 -64 -9z"/>
<path d="M8780 2170 c0 -33 4 -60 10 -60 6 0 10 27 10 60 0 33 -4 60 -10 60
-6 0 -10 -27 -10 -60z"/>
<path d="M8840 2215 c-16 -19 -5 -34 37 -51 18 -8 31 -19 28 -24 -9 -14 -53
-12 -58 3 -2 6 -8 9 -12 5 -14 -13 16 -38 45 -38 31 0 55 23 47 44 -3 8 -22
19 -41 26 -20 6 -34 16 -31 21 8 12 45 12 45 -1 0 -5 5 -10 10 -10 16 0 11 27
-6 34 -26 10 -51 7 -64 -9z"/>
<path d="M1140 1900 l0 -210 1060 0 1060 0 0 210 0 210 -1060 0 -1060 0 0
-210z m2100 0 l0 -190 -1040 0 -1040 0 0 190 0 190 1040 0 1040 0 0 -190z"/>
<path d="M1790 1900 c0 -47 4 -80 10 -80 6 0 10 28 10 63 l0 62 22 -37 c12
-21 26 -38 30 -38 5 0 19 17 31 38 l22 37 3 -62 c4 -91 22 -77 22 17 0 63 -3
80 -14 80 -8 0 -17 -8 -20 -17 -4 -10 -14 -28 -24 -41 l-18 -24 -27 41 c-15
23 -32 41 -37 41 -6 0 -10 -34 -10 -80z"/>
<path d="M2340 1900 c0 -86 17 -111 22 -33 2 37 7 49 22 51 24 5 36 -14 36
-60 0 -21 5 -38 10 -38 15 0 12 83 -3 105 -10 12 -22 16 -40 13 -23 -4 -27 -2
-27 18 0 13 -4 24 -10 24 -6 0 -10 -33 -10 -80z"/>
<path d="M2532 1968 c-17 -17 -15 -63 3 -78 9 -7 27 -10 44 -7 25 5 28 4 24
-14 -7 -27 -31 -35 -55 -20 -25 15 -35 7 -18 -14 16 -19 50 -19 76 -1 23 17
27 103 5 129 -16 20 -62 22 -79 5z m67 -30 c9 -25 -2 -38 -32 -38 -20 0 -32
23 -23 45 9 23 45 18 55 -7z"/>
<path d="M2260 1956 c0 -8 -6 -17 -12 -20 -10 -5 -10 -7 0 -12 6 -3 12 -21 12
-39 0 -18 3 -40 6 -49 7 -17 44 -22 44 -6 0 6 -7 10 -15 10 -11 0 -15 11 -15
40 0 29 4 40 15 40 8 0 15 5 15 10 0 6 -7 10 -15 10 -8 0 -15 7 -15 15 0 8 -4
15 -10 15 -5 0 -10 -6 -10 -14z"/>
<path d="M1990 1925 c-7 -9 -13 -29 -13 -45 0 -41 20 -62 57 -58 21 2 35 11
46 31 13 24 13 30 0 55 -19 32 -69 42 -90 17z m69 -23 c6 -10 7 -29 4 -41 -4
-17 -12 -21 -32 -19 -27 3 -39 32 -27 64 8 20 43 17 55 -4z"/>
<path d="M2120 1878 c0 -70 18 -78 22 -10 3 43 5 47 28 47 23 0 25 -4 28 -47
4 -63 22 -62 22 1 0 57 -12 70 -62 68 l-38 -1 0 -58z"/>
<path d="M1140 1380 l0 -210 1060 0 1060 0 0 210 0 210 -1060 0 -1060 0 0
-210z m2100 0 l0 -190 -1040 0 -1040 0 0 190 0 190 1040 0 1040 0 0 -190z"/>
<path d="M1720 1380 c0 -47 4 -80 10 -80 6 0 10 27 10 62 l0 63 25 -38 c14
-20 29 -37 33 -37 5 0 18 17 30 38 l22 37 0 -62 c0 -35 4 -63 10 -63 6 0 10
33 10 80 0 46 -4 80 -10 80 -5 0 -21 -18 -35 -40 -14 -22 -27 -40 -29 -40 -3
0 -15 18 -27 40 -36 64 -49 53 -49 -40z"/>
<path d="M2270 1380 c0 -86 17 -111 22 -32 3 43 5 47 31 50 26 3 27 2 27 -47
0 -29 5 -51 10 -51 7 0 10 22 8 58 l-3 57 -37 -1 c-34 -1 -38 2 -38 22 0 13
-4 24 -10 24 -6 0 -10 -33 -10 -80z"/>
<path d="M2483 1443 c-28 -19 -30 -33 -3 -26 18 5 20 0 20 -56 0 -48 3 -61 15
-61 12 0 15 16 15 80 0 86 -5 93 -47 63z"/>
<path d="M2602 1448 c-27 -35 -22 -122 9 -141 30 -19 67 0 78 38 10 39 0 93
-21 107 -19 12 -54 10 -66 -4z m62 -24 c9 -23 7 -77 -3 -92 -5 -8 -17 -12 -27
-10 -15 2 -20 13 -22 47 -2 24 -1 50 2 57 7 19 42 18 50 -2z"/>
<path d="M2190 1435 c0 -8 -5 -15 -11 -15 -8 0 -8 -4 -1 -13 6 -7 12 -30 14
-51 3 -39 29 -69 45 -52 4 5 2 11 -4 13 -16 6 -17 80 -1 85 7 3 5 12 -8 26
-22 26 -34 28 -34 7z"/>
<path d="M1926 1404 c-9 -8 -16 -28 -16 -44 0 -54 59 -80 93 -42 50 55 -26
138 -77 86z m69 -24 c11 -36 -4 -62 -33 -58 -28 3 -40 32 -28 64 8 22 54 18
61 -6z"/>
<path d="M2050 1358 c0 -69 18 -78 22 -10 3 43 5 47 31 50 26 3 27 2 27 -47 0
-29 5 -51 10 -51 7 0 10 22 8 58 l-3 57 -47 1 -48 1 0 -59z"/>
<path d="M7440 1380 l0 -210 1060 0 1060 0 0 210 0 210 -1060 0 -1060 0 0
-210z m2100 0 l0 -190 -1040 0 -1040 0 0 190 0 190 1040 0 1040 0 0 -190z"/>
<path d="M7986 1444 c-28 -27 -15 -50 40 -69 26 -9 39 -19 39 -32 0 -25 -54
-31 -72 -7 -15 20 -28 13 -20 -10 8 -21 54 -31 86 -20 20 7 26 16 26 39 0 26
-5 32 -42 45 -29 10 -43 20 -43 32 0 20 44 26 55 8 3 -5 13 -10 22 -10 14 0
14 3 -2 20 -22 24 -67 26 -89 4z"/>
<path d="M8120 1380 c0 -47 4 -80 10 -80 6 0 10 15 10 33 l1 32 27 -33 c15
-18 33 -32 41 -32 10 0 6 9 -12 28 -32 34 -33 43 -7 67 11 10 18 21 15 23 -3
3 -19 -7 -35 -23 l-30 -29 0 47 c0 26 -4 47 -10 47 -6 0 -10 -33 -10 -80z"/>
<path d="M8248 1409 c-23 -13 -24 -72 -2 -93 8 -9 26 -16 38 -16 25 0 54 26
42 37 -4 4 -11 2 -15 -6 -11 -18 -55 -10 -59 12 -3 14 4 17 37 17 33 0 41 4
41 18 0 37 -44 54 -82 31z m62 -19 c0 -5 -14 -10 -31 -10 -17 0 -28 4 -24 10
3 6 17 10 31 10 13 0 24 -4 24 -10z"/>
<path d="M8356 1398 c35 -111 47 -120 67 -52 l14 48 15 -44 c8 -24 19 -45 25
-47 10 -4 43 76 43 104 0 30 -17 10 -29 -34 l-13 -48 -15 48 c-8 27 -19 47
-25 45 -7 -3 -18 -24 -26 -48 l-15 -44 -14 47 c-7 26 -18 47 -24 47 -6 0 -7
-9 -3 -22z"/>
<path d="M8550 1358 c0 -69 18 -78 22 -11 2 37 7 49 22 51 24 5 36 -14 36 -60
0 -21 5 -38 10 -38 13 0 13 76 0 101 -8 14 -20 18 -50 17 l-40 -1 0 -59z"/>
<path d="M8698 1409 c-23 -13 -24 -72 -2 -93 8 -9 26 -16 38 -16 25 0 54 26
42 37 -4 4 -11 2 -15 -6 -11 -18 -55 -10 -59 12 -3 14 4 17 37 17 33 0 41 4
41 18 0 37 -44 54 -82 31z m62 -19 c0 -5 -14 -10 -31 -10 -17 0 -28 4 -24 10
3 6 17 10 31 10 13 0 24 -4 24 -10z"/>
<path d="M8820 1405 c-16 -19 -5 -34 37 -51 18 -8 31 -19 28 -24 -9 -14 -53
-12 -58 3 -2 6 -8 9 -12 5 -14 -13 16 -38 45 -38 31 0 55 23 47 44 -3 8 -22
19 -41 26 -20 6 -34 16 -31 21 8 12 45 12 45 -1 0 -5 5 -10 10 -10 16 0 11 27
-6 34 -26 10 -51 7 -64 -9z"/>
<path d="M8947 1414 c-18 -18 -5 -46 28 -60 19 -8 35 -19 35 -24 0 -14 -44
-12 -58 2 -17 17 -28 2 -12 -17 16 -20 64 -19 81 1 16 20 1 46 -31 54 -13 3
-25 11 -28 18 -5 16 30 16 47 0 10 -11 12 -9 9 7 -2 14 -12 21 -33 23 -17 2
-34 0 -38 -4z"/>
<path d="M1140 850 l0 -210 1060 0 1060 0 0 210 0 210 -1060 0 -1060 0 0 -210z
m2100 0 l0 -190 -1040 0 -1040 0 0 190 0 190 1040 0 1040 0 0 -190z"/>
<path d="M1720 850 c0 -47 4 -80 10 -80 6 0 10 27 10 62 l0 63 25 -38 c14 -20
29 -37 33 -37 5 0 18 17 30 38 l22 37 0 -62 c0 -35 4 -63 10 -63 6 0 10 33 10
80 0 46 -4 80 -10 80 -5 0 -21 -18 -35 -40 -14 -22 -27 -40 -29 -40 -3 0 -15
18 -27 40 -36 64 -49 53 -49 -40z"/>
<path d="M2270 850 c0 -86 17 -111 22 -32 3 43 5 47 31 50 26 3 27 2 27 -47 0
-29 5 -51 10 -51 7 0 10 22 8 58 l-3 57 -37 -1 c-34 -1 -38 2 -38 22 0 13 -4
24 -10 24 -6 0 -10 -33 -10 -80z"/>
<path d="M2483 913 c-28 -19 -30 -33 -3 -26 18 5 20 0 20 -56 0 -48 3 -61 15
-61 12 0 15 16 15 80 0 86 -5 93 -47 63z"/>
<path d="M2617 912 c-29 -20 -26 -38 4 -21 18 9 19 5 19 -56 0 -37 4 -65 10
-65 6 0 10 33 10 80 0 44 -3 80 -7 80 -5 0 -20 -8 -36 -18z"/>
<path d="M2190 905 c0 -8 -5 -15 -11 -15 -8 0 -8 -4 -1 -13 6 -7 12 -30 14
-51 3 -39 29 -69 45 -52 4 5 2 11 -4 13 -16 6 -17 80 -1 85 7 3 5 12 -8 26
-22 26 -34 28 -34 7z"/>
<path d="M1926 874 c-9 -8 -16 -28 -16 -44 0 -54 59 -80 93 -42 50 55 -26 138
-77 86z m69 -24 c11 -36 -4 -62 -33 -58 -28 3 -40 32 -28 64 8 22 54 18 61 -6z"/>
<path d="M2050 828 c0 -69 18 -78 22 -10 3 43 5 47 31 50 26 3 27 2 27 -47 0
-29 5 -51 10 -51 7 0 10 22 8 58 l-3 57 -47 1 -48 1 0 -59z"/>
</g>
</svg>
